<svg xmlns="http://www.w3.org/2000/svg" xmlns:xlink="http://www.w3.org/1999/xlink" viewBox="0 0 100 125" version="1.1" x="0px" y="0px"><title>RubberDuck</title><desc>Created with Sketch.</desc><g stroke="none" stroke-width="1" fill="none" fill-rule="evenodd"><g fill="#000000"><g transform="translate(0.000000, 5.000000)"><path fill="#F5D2C6" d="M77.8694949,10.8881818 C80.4311111,10.8881818 82.5159596,12.9720202 82.5159596,15.5346465 C82.5159596,18.0972727 80.4311111,20.1811111 77.8694949,20.1811111 C75.3068687,20.1811111 73.2220202,18.0972727 73.2220202,15.5346465 C73.2220202,12.9720202 75.3068687,10.8881818 77.8694949,10.8881818 M77.8694949,23.2114141 C82.1018182,23.2114141 85.5462626,19.7679798 85.5462626,15.5346465 C85.5462626,11.3013131 82.1018182,7.85787879 77.8694949,7.85787879 C73.6361616,7.85787879 70.1917172,11.3013131 70.1917172,15.5346465 C70.1917172,19.7679798 73.6361616,23.2114141 77.8694949,23.2114141"/><path fill="#F5D2C6" d="M12.4605051,38.0159596 C12.4605051,34.4957576 15.3241414,31.6321212 18.8443434,31.6321212 C22.3645455,31.6321212 25.2281818,34.4957576 25.2281818,38.0159596 C25.2281818,41.5351515 22.3645455,44.3987879 18.8443434,44.3987879 C15.3241414,44.3987879 12.4605051,41.5351515 12.4605051,38.0159596 M28.2584848,38.0159596 C28.2584848,32.8240404 24.0352525,28.6018182 18.8443434,28.6018182 C13.6534343,28.6018182 9.43020202,32.8240404 9.43020202,38.0159596 C9.43020202,43.2068687 13.6534343,47.4290909 18.8443434,47.4290909 C24.0352525,47.4290909 28.2584848,43.2068687 28.2584848,38.0159596"/><path fill="#F5D2C6" d="M40.6545455,3.03030303 C44.9060606,3.03030303 48.3656566,6.48989899 48.3656566,10.7414141 C48.3656566,14.9929293 44.9060606,18.4525253 40.6545455,18.4525253 C36.4030303,18.4525253 32.9434343,14.9929293 32.9434343,10.7414141 C32.9434343,6.48989899 36.4030303,3.03030303 40.6545455,3.03030303 M40.6545455,21.4828283 C46.5767677,21.4828283 51.3959596,16.6636364 51.3959596,10.7414141 C51.3959596,4.81919192 46.5767677,0 40.6545455,0 C34.7323232,0 29.9131313,4.81919192 29.9131313,10.7414141 C29.9131313,16.6636364 34.7323232,21.4828283 40.6545455,21.4828283"/><path fill="#F5D2C6" d="M75.5514141,45.3154545 C75.5514141,44.4790909 74.8726263,43.800303 74.0362626,43.800303 L69.3564646,43.800303 C68.520101,43.800303 67.8413131,44.4790909 67.8413131,45.3154545 C67.8413131,46.1518182 68.520101,46.8306061 69.3564646,46.8306061 L74.0362626,46.8306061 C74.8726263,46.8306061 75.5514141,46.1518182 75.5514141,45.3154545"/><path fill="#F5D2C6" d="M78.7336364,87.1182828 L35.6437374,87.1182828 C30.9922222,87.1182828 27.4689899,84.5970707 23.4922222,78.4213131 C19.429596,70.2011111 18.1780808,62.5233333 17.8063636,59.1859596 L37.659899,61.2334343 C39.1457576,61.3859596 40.6609091,61.4647475 42.1629293,61.4647475 L57.890202,61.4647475 C58.5467677,61.4647475 59.1275758,61.0425253 59.3306061,60.4182828 C59.5336364,59.7950505 59.3124242,59.1112121 58.7831313,58.7253535 C55.1932323,56.1061616 53.049798,51.9061616 53.049798,47.49 C53.049798,43.5334343 54.7437374,39.749596 57.6962626,37.1112121 C60.690202,34.4364646 64.5588889,33.2122222 68.5881818,33.6667677 C74.5538384,34.3405051 79.490202,38.9738384 80.6144444,44.8182828 C80.6154545,44.8223232 80.6144444,44.8263636 80.6154545,44.830404 L80.6245455,44.8738384 C80.6689899,45.1081818 80.7184848,45.3415152 80.749798,45.5788889 C80.8043434,45.9889899 80.8326263,46.3980808 80.8528283,46.8051515 C80.8588889,46.9415152 80.8629293,47.0778788 80.8649495,47.2142424 C80.87,47.4950505 80.8639394,47.7768687 80.8528283,48.0556566 C80.8407071,48.3344444 80.8184848,48.6132323 80.790202,48.8889899 C80.7720202,49.0768687 80.7528283,49.2627273 80.7265657,49.4485859 C80.690202,49.6950505 80.6487879,49.9394949 80.600303,50.1829293 C80.5811111,50.2758586 80.5588889,50.3687879 80.5386869,50.4627273 C80.4225253,50.9869697 80.280101,51.5041414 80.1043434,52.010202 C80.0972727,52.0334343 80.0912121,52.0556566 80.0831313,52.0788889 C79.9922222,52.3354545 79.8912121,52.59 79.7871717,52.8415152 C79.7457576,52.9394949 79.7023232,53.0354545 79.6588889,53.1314141 C79.5093939,53.4687879 79.3437374,53.800101 79.1659596,54.1243434 C79.0588889,54.3192929 78.9528283,54.5162626 78.8356566,54.7061616 C78.749798,54.8475758 78.659899,54.9849495 78.5689899,55.1223232 C78.3770707,55.4112121 78.1790909,55.6980808 77.9639394,55.9738384 C77.1689899,57.0051515 76.2275758,57.9354545 75.1447475,58.7253535 C74.6154545,59.1112121 74.3942424,59.7950505 74.5972727,60.4182828 C74.800303,61.0425253 75.3821212,61.4647475 76.0376768,61.4647475 L78.7336364,61.4647475 C85.8063636,61.4647475 91.5609091,67.2192929 91.5609091,74.2920202 C91.5609091,81.3647475 85.8063636,87.1182828 78.7336364,87.1182828 M83.8962626,47.0677778 C83.8942424,46.9889899 83.8891919,46.9112121 83.8861616,46.8324242 C83.8760606,46.5738384 83.8710101,46.3152525 83.8487879,46.0556566 L92.0811111,46.0556566 C91.3710101,51.1607071 87.1265657,55.1506061 81.9063636,55.4647475 C83.2891919,52.8950505 83.9689899,50.020303 83.8962626,47.0677778 M98.4851515,87.1182828 L88.0194949,87.1182828 C91.9932323,84.2344444 94.5912121,79.5657576 94.5912121,74.2920202 C94.5912121,66.0445455 88.2588889,59.2607071 80.2033333,58.5152525 L81.2407071,58.5152525 C88.9467677,58.5152525 95.2154545,52.2465657 95.2154545,44.5405051 C95.2154545,43.7041414 94.5376768,43.0253535 93.700303,43.0253535 L83.3023232,43.0253535 C81.510404,36.4869697 75.7760606,31.4283838 68.9275758,30.6566667 C64.1083838,30.1081818 59.2710101,31.6405051 55.6770707,34.8516162 C52.0811111,38.0647475 50.0194949,42.6708081 50.0194949,47.49 C50.0194949,51.5192929 51.4821212,55.4011111 54.0518182,58.4344444 L42.1629293,58.4344444 C40.7639394,58.4344444 39.3538384,58.3617172 37.9720202,58.2192929 L16.2962626,55.9839394 C15.8578788,55.9455556 15.4265657,56.0859596 15.1063636,56.3839394 C14.7851515,56.6839394 14.6114141,57.1071717 14.6265657,57.5465657 C14.6427273,57.9778788 15.0760606,68.2677778 20.8508081,79.9061616 C20.87,79.9425253 20.890202,79.9778788 20.9134343,80.0122222 C22.5689899,82.5910101 24.5063636,85.1940404 26.9811111,87.1182828 L14.4194949,87.1182828 C13.5831313,87.1182828 12.9043434,87.7970707 12.9043434,88.6334343 C12.9043434,89.469798 13.5831313,90.1485859 14.4194949,90.1485859 L35.6437374,90.1485859 L78.7336364,90.1485859 L98.4851515,90.1485859 C99.3215152,90.1485859 100.000303,89.469798 100.000303,88.6334343 C100.000303,87.7970707 99.3215152,87.1182828 98.4851515,87.1182828"/><path fill="#F5D2C6" d="M6.67717172,86.7030303 L1.51555556,86.7030303 C0.679191919,86.7030303 0.000404040404,87.3818182 0.000404040404,88.2181818 C0.000404040404,89.0545455 0.679191919,89.7333333 1.51555556,89.7333333 L6.67717172,89.7333333 C7.51353535,89.7333333 8.19232323,89.0545455 8.19232323,88.2181818 C8.19232323,87.3818182 7.51353535,86.7030303 6.67717172,86.7030303"/></g></g></g></svg>